<?xml version="1.0" standalone="no"?><!DOCTYPE svg PUBLIC "-//W3C//DTD SVG 1.1//EN" "http://www.w3.org/Graphics/SVG/1.1/DTD/svg11.dtd"><svg t="1683730609850" class="icon" viewBox="0 0 1024 1024" version="1.1" xmlns="http://www.w3.org/2000/svg" p-id="1725" xmlns:xlink="http://www.w3.org/1999/xlink" width="200" height="200"><path d="M640 970.666667H384c-231.765333 0-330.666667-98.901333-330.666667-330.666667V384c0-231.765333 98.901333-330.666667 330.666667-330.666667h256c231.765333 0 330.666667 98.901333 330.666667 330.666667v256c0 231.765333-98.901333 330.666667-330.666667 330.666667z m-256-853.333334C187.136 117.333333 117.333333 187.136 117.333333 384v256c0 196.864 69.802667 266.666667 266.666667 266.666667h256c196.864 0 266.666667-69.802667 266.666667-266.666667V384c0-196.864-69.76-266.666667-266.666667-266.666667z" fill="#ffffff" p-id="1726"></path><path d="M276.053333 374.570667A32 32 0 0 1 321.28 329.386667a78.037333 78.037333 0 0 0 110.08 0 32 32 0 0 1 45.226667 45.226666 142.933333 142.933333 0 0 1-100.266667 41.386667 141.141333 141.141333 0 0 1-100.266667-41.429333zM547.456 374.570667a32 32 0 0 1 45.226667-45.184 78.037333 78.037333 0 0 0 110.08 0 32 32 0 0 1 45.226666 45.226666 142.933333 142.933333 0 0 1-100.266666 41.386667 141.141333 141.141333 0 0 1-100.266667-41.429333zM512 817.066667a224.256 224.256 0 0 1-224-224 70.485333 70.485333 0 0 1 70.4-70.4h307.2a70.485333 70.485333 0 0 1 70.4 70.4A224.298667 224.298667 0 0 1 512 817.066667z m-153.6-230.4a6.528 6.528 0 0 0-6.4 6.4 160 160 0 1 0 320 0 6.570667 6.570667 0 0 0-6.4-6.4z" fill="#ffffff" p-id="1727"></path></svg>