<?xml version="1.0" standalone="no"?><!DOCTYPE svg PUBLIC "-//W3C//DTD SVG 1.1//EN" "http://www.w3.org/Graphics/SVG/1.1/DTD/svg11.dtd"><svg t="1684208245055" class="icon" viewBox="0 0 1024 1024" version="1.1" xmlns="http://www.w3.org/2000/svg" p-id="1015" xmlns:xlink="http://www.w3.org/1999/xlink" width="200" height="200"><path d="M326.016 938.666667h371.925333C841.898667 938.666667 938.666667 837.632 938.666667 687.232v-60.373333a29.738667 29.738667 0 0 0-11.221334-23.253334c-9.344-7.466667-18.944-15.786667-28.8-24.32l-0.384-0.341333-0.256-0.256c-52.693333-45.525333-118.186667-102.101333-200.490666-82.944-59.605333 13.824-90.197333 58.965333-117.162667 98.773333l-0.170667 0.213334-0.042666 0.085333c-17.92 26.453333-34.773333 51.413333-58.368 65.962667-23.168 14.421333-50.730667 4.138667-90.154667-13.098667l-6.698667-2.986667c-71.936-31.317333-130.944-22.314667-180.48 27.605334a29.824 29.824 0 0 0 0.170667 42.112 29.696 29.696 0 0 0 42.069333-0.170667c31.872-32.128 65.066667-36.48 114.474667-14.890667l6.570667 2.858667h0.085333c39.68 17.365333 93.909333 41.045333 145.28 9.216 34.432-21.333333 55.765333-52.821333 76.373333-83.285333 23.893333-35.285333 44.544-65.792 81.536-74.368 52.906667-12.245333 101.333333 29.610667 148.224 70.144l0.085334 0.085333 2.090666 1.792c5.973333 5.205333 11.904 10.325333 17.706667 15.146667v46.293333c0 116.608-71.125333 191.872-181.162667 191.872H326.016c-110.037333 0-181.162667-75.264-181.162667-191.872V336.768c0-116.608 71.125333-191.872 181.162667-191.872h371.968c110.08 0 181.12 75.264 181.12 191.872v101.12a29.824 29.824 0 0 0 59.562667 0v-101.12C938.666667 186.368 841.941333 85.333333 698.026667 85.333333H325.973333c-143.957333 0-240.64 101.034667-240.64 251.434667v350.464C85.333333 837.632 182.016 938.666667 325.973333 938.666667z m51.754667-454.826667a109.269333 109.269333 0 0 1-109.141334-109.226667 109.226667 109.226667 0 0 1 109.141334-109.141333 109.226667 109.226667 0 0 1 109.141333 109.141333 109.269333 109.269333 0 0 1-109.141333 109.226667z m0-158.805333c-27.349333 0-49.621333 22.229333-49.621334 49.578666a49.664 49.664 0 0 0 99.242667 0c0-27.306667-22.229333-49.578667-49.621333-49.578666z" fill="#ffffff" p-id="1016"></path></svg>